<mxfile host="app.diagrams.net" modified="2023-05-22T08:01:17.842Z" agent="Mozilla/5.0 (Windows NT 10.0; Win64; x64; rv:109.0) Gecko/20100101 Firefox/113.0" version="21.3.2" etag="uTgJSPF0l3H2uDPnKjsr" type="github">
  <diagram name="Pagina-1" id="UG-Dy1rbfcLUJqzameLS">
    <mxGraphModel>
      <root>
        <mxCell id="0" />
        <mxCell id="1" parent="0" />
      </root>
    </mxGraphModel>
  </diagram>
</mxfile>
